<?xml version="1.0" encoding="UTF-8" standalone="no"?>
<!-- Created with Inkscape (http://www.inkscape.org/) -->

<svg
   xmlns:dc="http://purl.org/dc/elements/1.1/"
   xmlns:cc="http://creativecommons.org/ns#"
   xmlns:rdf="http://www.w3.org/1999/02/22-rdf-syntax-ns#"
   xmlns:svg="http://www.w3.org/2000/svg"
   xmlns="http://www.w3.org/2000/svg"
   xmlns:sodipodi="http://sodipodi.sourceforge.net/DTD/sodipodi-0.dtd"
   xmlns:inkscape="http://www.inkscape.org/namespaces/inkscape"
   width="210mm"
   height="143mm"
   viewBox="0 0 210 143"
   version="1.1"
   id="svg3969"
   inkscape:version="0.92.2 (5c3e80d, 2017-08-06)"
   sodipodi:docname="fuckyou.svg">
  <defs
     id="defs3963" />
  <sodipodi:namedview
     id="base"
     pagecolor="#ffffff"
     bordercolor="#666666"
     borderopacity="1.0"
     inkscape:pageopacity="0.0"
     inkscape:pageshadow="2"
     inkscape:zoom="0.49497475"
     inkscape:cx="281.01562"
     inkscape:cy="488.52361"
     inkscape:document-units="mm"
     inkscape:current-layer="g4531"
     showgrid="false"
     inkscape:snap-page="true"
     inkscape:window-width="1366"
     inkscape:window-height="745"
     inkscape:window-x="-8"
     inkscape:window-y="-8"
     inkscape:window-maximized="1" />
  <metadata
     id="metadata3966">
    <rdf:RDF>
      <cc:Work
         rdf:about="">
        <dc:format>image/svg+xml</dc:format>
        <dc:type
           rdf:resource="http://purl.org/dc/dcmitype/StillImage" />
        <dc:title></dc:title>
      </cc:Work>
    </rdf:RDF>
  </metadata>
  <g
     inkscape:label="Layer 1"
     inkscape:groupmode="layer"
     id="layer1"
     transform="translate(0,-154)">
    <g
       id="g4531"
       transform="matrix(0.72661088,0,0,0.72661088,-3.1072152,-34.0895)">
      <g
         id="g4536"
         transform="translate(1.5441552e-8,214.81292)">
        <path
           style="fill:none;stroke:#000000;stroke-width:0.26458332px;stroke-linecap:butt;stroke-linejoin:miter;stroke-opacity:1"
           d="m 4.2763125,152.67445 c 0,0 94.0788735,-76.439081 81.2499345,-95.147949 C 72.69731,38.817637 68.955538,200.78297 47.573975,201.31751"
           id="path4522"
           inkscape:connector-curvature="0" />
        <path
           style="fill:none;stroke:#000000;stroke-width:0.26458332px;stroke-linecap:butt;stroke-linejoin:miter;stroke-opacity:1"
           d="m 57.195677,133.96559 c 0,0 25.657876,3.74177 31.003266,1.06907 5.34539,-2.67269 17.639787,-25.12333 18.708867,-35.279572 1.06908,-10.156243 4.27631,43.832202 27.26149,45.970352 22.98518,2.13816 16.57071,-46.504892 16.57071,-46.504892 0,0 -0.70527,47.164032 10.15624,48.108512 12.2944,1.06908 11.0528,-49.509027 57.19568,-39.55589 -23.88173,-10.359341 -48.64305,40.09043 -10.15624,40.09043 38.48681,0 40.09043,-100.493339 40.09043,-100.493339 L 249.0952,147.8636 c 0,0 10.15624,-75.904544 19.24341,-50.246668 9.08715,25.657878 -3.20725,26.192418 -3.20725,26.192418 l 17.10526,21.38156"
           id="path4524"
           inkscape:connector-curvature="0"
           sodipodi:nodetypes="ccsscscsccscc" />
        <path
           style="fill:none;stroke:#000000;stroke-width:0.26458332px;stroke-linecap:butt;stroke-linejoin:miter;stroke-opacity:1"
           d="m 126.15121,172.4524 c 0,0 -2.13815,53.4539 28.33057,1.60361 30.46873,-51.85028 -3.74177,82.85355 -34.2105,63.61015 -30.46872,-19.24341 76.97363,-82.31901 89.26802,-72.16277 12.2944,10.15624 8.55263,42.76312 -6.41447,36.88319 -14.96709,-5.87993 -14.96709,-35.27957 5.34539,-37.95227 20.31249,-2.67269 29.93419,40.62497 38.48682,36.88319 8.55262,-3.74177 15.58284,-24.61055 12.2944,-36.88319 -3.28845,-12.27264 9.6217,44.36674 13.89801,35.81412"
           id="path4526"
           inkscape:connector-curvature="0" />
      </g>
    </g>
  </g>
</svg>
