<?xml version="1.0" encoding="UTF-8" standalone="no"?>
<!-- Created with Inkscape (http://www.inkscape.org/) -->

<svg
   xmlns:dc="http://purl.org/dc/elements/1.1/"
   xmlns:cc="http://creativecommons.org/ns#"
   xmlns:rdf="http://www.w3.org/1999/02/22-rdf-syntax-ns#"
   xmlns:svg="http://www.w3.org/2000/svg"
   xmlns="http://www.w3.org/2000/svg"
   xmlns:sodipodi="http://sodipodi.sourceforge.net/DTD/sodipodi-0.dtd"
   xmlns:inkscape="http://www.inkscape.org/namespaces/inkscape"
   width="210mm"
   height="143mm"
   viewBox="0 0 210 143"
   version="1.1"
   id="svg9938"
   inkscape:version="0.92.2 (5c3e80d, 2017-08-06)"
   sodipodi:docname="goaway.svg">
  <defs
     id="defs9932" />
  <sodipodi:namedview
     id="base"
     pagecolor="#ffffff"
     bordercolor="#666666"
     borderopacity="1.0"
     inkscape:pageopacity="0.0"
     inkscape:pageshadow="2"
     inkscape:zoom="0.49497475"
     inkscape:cx="239.11374"
     inkscape:cy="169.18182"
     inkscape:document-units="mm"
     inkscape:current-layer="layer1"
     showgrid="false"
     inkscape:window-width="1366"
     inkscape:window-height="745"
     inkscape:window-x="-8"
     inkscape:window-y="-8"
     inkscape:window-maximized="1" />
  <metadata
     id="metadata9935">
    <rdf:RDF>
      <cc:Work
         rdf:about="">
        <dc:format>image/svg+xml</dc:format>
        <dc:type
           rdf:resource="http://purl.org/dc/dcmitype/StillImage" />
        <dc:title></dc:title>
      </cc:Work>
    </rdf:RDF>
  </metadata>
  <g
     inkscape:label="Layer 1"
     inkscape:groupmode="layer"
     id="layer1"
     transform="translate(0,-154)">
    <path
       style="fill:none;stroke:#000000;stroke-width:0.26458332px;stroke-linecap:butt;stroke-linejoin:miter;stroke-opacity:1"
       d="m -7.1815476,210.44345 c 0,0 18.8988096,-5.29167 30.9940476,-18.14286 12.095239,-12.85119 27.214284,28.34821 9.827381,27.21428 -17.386905,-1.13392 -11.717262,-34.39583 4.157737,-33.2619 15.874999,1.13393 13.229166,-15.875 15.119048,-12.85119 1.889881,3.02381 0.755951,43.08928 2.645833,44.97917 1.889882,1.88988 7.100931,-54.7619 21.166667,-2.26786 4.273165,15.94767 20.032738,-1.51191 20.032738,-1.51191"
       id="path10483"
       inkscape:connector-curvature="0"
       sodipodi:nodetypes="csssscsc" />
    <path
       style="fill:none;stroke:#000000;stroke-width:0.26458332px;stroke-linecap:butt;stroke-linejoin:miter;stroke-opacity:1"
       d="m 132.29166,183.60713 c 0,0 -34.395828,10.20535 -17.76488,20.03273 16.63095,9.82739 18.14286,-23.43452 18.14286,-23.43452 0,0 16.25298,57.07441 -4.53572,52.91667 -20.78869,-4.15774 16.63096,-43.46726 26.08036,-47.625 9.44941,-4.15774 9.07143,28.72619 0.37798,23.05654 -8.69345,-5.66964 -4.53572,-21.54464 -0.75595,-23.05654 3.77976,-1.51191 15.11904,-1.51191 15.11904,-1.51191"
       id="path10487"
       inkscape:connector-curvature="0" />
    <path
       style="fill:none;stroke:#000000;stroke-width:0.26458332px;stroke-linecap:butt;stroke-linejoin:miter;stroke-opacity:1"
       d="m 46.869048,235.01189 c 0,0 -38.1755956,24.19047 -18.142857,23.05654 20.032738,-1.13392 17.764881,-26.08035 17.764881,-26.08035 0,0 3.401785,25.70238 12.851191,24.94643 9.449403,-0.75596 5.669642,-20.41072 5.669642,-20.41072 0,0 3.779761,26.45834 10.205357,20.78869 6.425594,-5.66964 7.559522,-21.54464 7.559522,-21.54464 0,0 14.363096,6.80357 21.922616,4.91369 7.55953,-1.88988 -26.836304,19.65476 -10.961304,16.25298 15.874994,-3.40179 11.717264,-19.65477 12.095234,-17.00893 0.37798,2.64583 -1.88988,16.63095 3.40179,16.25297 5.29166,-0.37797 6.42559,-16.63095 7.18154,-12.47321 0.75595,4.15774 3.77976,15.49702 6.4256,13.98512 2.64583,-1.51191 6.42559,-17.38691 6.80357,-13.60714 0.37797,3.77976 9.4494,36.28571 -61.988092,30.61607"
       id="path10491"
       inkscape:connector-curvature="0" />
  </g>
</svg>
