<?xml version="1.0" encoding="UTF-8" standalone="no"?>
<!-- Created with Inkscape (http://www.inkscape.org/) -->

<svg
   xmlns:dc="http://purl.org/dc/elements/1.1/"
   xmlns:cc="http://creativecommons.org/ns#"
   xmlns:rdf="http://www.w3.org/1999/02/22-rdf-syntax-ns#"
   xmlns:svg="http://www.w3.org/2000/svg"
   xmlns="http://www.w3.org/2000/svg"
   xmlns:sodipodi="http://sodipodi.sourceforge.net/DTD/sodipodi-0.dtd"
   xmlns:inkscape="http://www.inkscape.org/namespaces/inkscape"
   width="210mm"
   height="143mm"
   viewBox="0 0 210 143"
   version="1.1"
   id="svg9358"
   inkscape:version="0.92.2 (5c3e80d, 2017-08-06)"
   sodipodi:docname="notgonnabother.svg">
  <defs
     id="defs9352" />
  <sodipodi:namedview
     id="base"
     pagecolor="#ffffff"
     bordercolor="#666666"
     borderopacity="1.0"
     inkscape:pageopacity="0.0"
     inkscape:pageshadow="2"
     inkscape:zoom="0.7"
     inkscape:cx="412.26195"
     inkscape:cy="295.25556"
     inkscape:document-units="mm"
     inkscape:current-layer="layer1"
     showgrid="false"
     inkscape:snap-global="false"
     inkscape:window-width="1366"
     inkscape:window-height="745"
     inkscape:window-x="-8"
     inkscape:window-y="-8"
     inkscape:window-maximized="1" />
  <metadata
     id="metadata9355">
    <rdf:RDF>
      <cc:Work
         rdf:about="">
        <dc:format>image/svg+xml</dc:format>
        <dc:type
           rdf:resource="http://purl.org/dc/dcmitype/StillImage" />
        <dc:title></dc:title>
      </cc:Work>
    </rdf:RDF>
  </metadata>
  <g
     inkscape:label="Layer 1"
     inkscape:groupmode="layer"
     id="layer1"
     transform="translate(0,-154)">
    <path
       style="fill:none;stroke:#000000;stroke-width:0.26458332px;stroke-linecap:butt;stroke-linejoin:miter;stroke-opacity:1"
       d="m -3.7797619,179.44939 c 0,0 24.1904749,-6.80357 23.8124989,-22.67857 -0.377976,-15.875 -7.181547,35.15179 -3.779761,45.73512 3.401785,10.58333 9.82738,-37.41964 15.875,-27.21429 6.047619,10.20536 2.267855,29.10417 2.267855,29.10417 0,0 12.095239,-46.11309 13.229167,-27.97024 1.13393,18.14286 -0.755952,27.97024 -0.755952,27.97024 0,0 3.023809,-41.1994 7.181548,-29.48214 4.157737,11.71726 0.755952,29.48214 0.755952,29.48214"
       id="path9903"
       inkscape:connector-curvature="0" />
    <path
       style="fill:none;stroke:#000000;stroke-width:0.26458332px;stroke-linecap:butt;stroke-linejoin:miter;stroke-opacity:1"
       d="m 92.982142,175.66963 -2.267857,31.37202 c 0,0 3.023809,-30.99405 10.961305,-30.99405 7.9375,0 -0.37797,28.34822 7.55953,29.10417 7.9375,0.75595 11.33928,-29.48214 17.00892,-27.59226 5.66965,1.88988 5.66965,34.01786 -1.13392,29.86012 -6.80358,-4.15774 -3.77977,-29.10417 -0.75596,-29.48215 3.02381,-0.37797 23.43453,5.29167 31.37203,4.9137"
       id="path9905"
       inkscape:connector-curvature="0" />
    <path
       style="fill:none;stroke:#000000;stroke-width:0.26458332px;stroke-linecap:butt;stroke-linejoin:miter;stroke-opacity:1"
       d="m 143.63095,171.13391 c 0,0 -4.53572,35.90774 5.29167,37.04167"
       id="path9907"
       inkscape:connector-curvature="0" />
    <path
       style="fill:none;stroke:#000000;stroke-width:0.26458332px;stroke-linecap:butt;stroke-linejoin:miter;stroke-opacity:1"
       d="m 16.630952,213.08927 c 0,0 20.410715,6.80357 21.922618,1.13393 1.511906,-5.66964 -33.2619035,-6.04762 -22.67857,6.04762 10.583334,12.09524 19.654761,8.69345 22.67857,6.42559 3.023809,-2.26785 8.315476,-12.85119 7.9375,-15.49702 -0.377976,-2.64583 7.512484,46.57216 24.94643,3.77976 4.157738,-10.20535 3.401785,10.58333 10.583333,11.33929 7.181546,0.75595 19.276777,3.40178 18.142847,-3.40179 -1.133929,-6.80357 -21.544635,-4.91369 -19.276777,4.53572 2.267857,9.4494 14.741072,13.98511 20.410707,5.66964 5.66964,-8.31548 4.53571,-20.03274 7.55952,-12.47322 3.02381,7.55953 1.13393,16.63096 1.13393,16.63096 0,0 0.37798,-22.3006 6.4256,-16.25298 6.04762,6.04762 1.5119,17.00893 3.77976,17.00893"
       id="path9909"
       inkscape:connector-curvature="0"
       sodipodi:nodetypes="csscsscsssscsc" />
    <path
       style="fill:none;stroke:#000000;stroke-width:0.26458332px;stroke-linecap:butt;stroke-linejoin:miter;stroke-opacity:1"
       d="m 27.970234,246.35117 c 0,0 -36.6636894,10.96131 -18.5208296,17.00893 18.1428596,6.04762 19.2767796,-15.49702 19.2767796,-15.49702 0,0 11.71727,32.88393 -11.33928,32.88393 -23.0565493,0 20.78869,-33.63988 26.45833,-33.26191 5.66964,0.37798 9.44941,22.67857 0.75595,17.76488 -8.69345,-4.91369 -1.5119,-18.89881 0.75596,-20.03273 2.26785,-1.13393 11.71726,8.31547 11.33928,17.3869 -0.37797,9.07143 1.51191,-43.84524 10.20536,-1.5119 4.32378,21.05494 0.37797,-16.25298 8.31547,-17.38691 7.9375,-1.13393 5.29167,22.3006 5.29167,22.3006 0,0 9.82738,-36.28572 13.60714,-17.00893 3.77976,19.27678 7.937496,17.3869 10.961306,13.60714 3.02381,-3.77976 3.02381,-13.60714 12.09524,-14.3631 9.07143,-0.75595 -9.82738,12.09524 -6.42559,15.11905 3.40178,3.02381 14.36309,-3.77976 12.47321,-14.74107 -1.88988,-10.96131 2.64583,17.38691 2.64583,17.38691"
       id="path9922"
       inkscape:connector-curvature="0"
       sodipodi:nodetypes="cscscsccsscssccsc" />
    <g
       id="g9930">
      <path
         inkscape:connector-curvature="0"
         id="path9924"
         d="m 84.666666,272.43154 1.133927,20.03274 c 0,0 -0.377976,-17.76488 6.047621,-11.71727 6.425594,6.04762 1.889879,12.47322 -6.047621,12.09524 -7.9375,-0.37797 16.252977,-17.76488 20.788687,-13.98512 4.53572,3.77977 0,17.00893 -4.15773,13.60715 -4.157742,-3.40179 -0.37798,-13.22917 2.64583,-13.98512 3.02381,-0.75595 15.49702,-1.88988 18.52083,-1.13393"
         style="fill:none;stroke:#000000;stroke-width:0.26458332px;stroke-linecap:butt;stroke-linejoin:miter;stroke-opacity:1" />
      <path
         inkscape:connector-curvature="0"
         id="path9926"
         d="m 114.52678,272.05356 c 0,0 -0.37797,11.71726 1.13393,14.74107 1.51191,3.02381 8.31548,10.20536 12.47322,4.53572 4.15774,-5.66964 3.40178,-25.70238 5.29166,-25.70238 1.88988,0 2.64584,24.19047 2.64584,24.19047 0,0 1.5119,-21.92262 7.9375,-2.26785 6.42559,19.65476 4.15773,-4.53572 10.96131,-4.91369 6.80357,-0.37798 -6.04762,-10.58334 -3.02381,1.5119 3.02381,12.09524 13.22916,-3.40179 13.22916,-3.40179 0,0 4.91369,-6.80357 5.29167,2.64584 0.37798,9.4494 0,6.80357 0,9.07143 0,2.26785 1.13393,-15.49703 8.31548,-13.98512"
         style="fill:none;stroke:#000000;stroke-width:0.26458332px;stroke-linecap:butt;stroke-linejoin:miter;stroke-opacity:1" />
    </g>
  </g>
</svg>
